<svg xmlns="http://www.w3.org/2000/svg" viewBox="0 0 494.49 187.83"><g id="Layer_2" data-name="Layer 2"><g id="Capa_1" data-name="Capa 1"><path d="M239.93,167.2c.76-.22,1.3-.35,1.84-.52,4.93-1.51,8.49-4.61,9.58-10.14s-.07-10.69-4.55-14.35c-3.32-2.73-7.27-3.59-11.34-3.63-10-.08-20,0-30,0-.37,0,.11.08-.51.16a16.9,16.9,0,0,1,1.79,8.07c.07,9.39.13,18.79,0,28.18,0,4.12,0,7.76-1.59,12.11h12.68a21.08,21.08,0,0,1-1.25-3.8,92.4,92.4,0,0,1-.83-10c-.11-8.32,0-16.65,0-25v-1.55c.26-.13.35-.23.46-.23,6.79,0,13.59,0,20.39.09a6.46,6.46,0,0,1,5.07,2.61,6,6,0,0,1-4,9.6c-4.31.49-8.71,0-13.07-.07-.42,0-1.06,0-1.22.28-1.47,2.58-2.85,5.23-4.37,8,2.77,0,5.23.11,7.68,0a2.9,2.9,0,0,1,2.92,1.64c2.56,4,5.21,7.95,7.82,11.92,2.5,3.81,5.66,6.54,10.15,7.08a15.77,15.77,0,0,0,7.36-.72c-6.21-5.68-10.18-12.89-15-19.76m131.24,1.49c2.56,4,5.22,7.94,7.83,11.92,2.5,3.8,5.65,6.53,10.14,7.07a15.76,15.76,0,0,0,7.36-.72c-6.19-5.68-10.18-12.9-15-19.75.77-.23,1.31-.36,1.85-.53,4.93-1.51,8.48-4.61,9.57-10.14s-.06-10.69-4.54-14.35c-3.32-2.73-7.27-3.59-11.35-3.63-10-.08-20,0-30,0-.36,0,.12.08-.5.16a16.89,16.89,0,0,1,1.78,8.07c.07,9.39.12,18.79,0,28.18-.06,4.12,0,7.76-1.58,12.1h12.68a19.31,19.31,0,0,1-1.25-3.79,92.4,92.4,0,0,1-.83-10c-.12-8.32,0-16.65,0-25v-1.55c.27-.13.35-.24.44-.24,6.8,0,13.6,0,20.41.1a6.44,6.44,0,0,1,5.07,2.61,6,6,0,0,1-4,9.6c-4.31.49-8.71,0-13.07-.07-.41,0-1.07,0-1.23.28-1.45,2.58-2.84,5.23-4.36,8,2.78,0,5.23.11,7.68,0a2.89,2.89,0,0,1,2.91,1.65m-259.73-30H98.15c1.76,3.38,3.7,6.59,5.17,10,2.75,6.4,5.43,12.85,8.09,19.3l8.07,19.19h8l12.25-29.85c2.56-6.36,5.23-12.68,8.38-18.77H136.16c1,3.21.1,6.11-1,8.91-3.46,8.59-10.93,26.36-11.2,26.81-3.74-8.83-7.43-17.44-11-26.09-1.27-3-2.19-6.15-1.43-9.52M12.06,168.16c0-.55,0-3.35,0-7,3.7-.16,21.22-.55,26.83,1.36V151.92c-5.38,1.77-23,1.29-26.82,1.09,0-7.44,0-14.83,0-14.83h5.8c4.07,0,8.07,0,12.08,0,6.48.05,9.4.36,15.24,3.56a60.85,60.85,0,0,1,.37-12.17H.39c1.39,2.79,1.69,6.88,1.68,9.91v11.09c0,5.57,0,11.35,0,17V169C2,175,2,181.25,0,187.13H14.44c-2.41-6.17-2.39-12.39-2.38-19m272.18-27.74c2.77-2.15,7.69-2.15,10.72-2.15h10.31s.12,28.83,0,37.55c-.06,3.56-.32,7.61-2.69,11.22h16.56c-2.36-3.6-2.63-7.66-2.68-11.22-.12-8.66,0-37.55,0-37.55h9.79c3,0,8,0,10.74,2.15a35.23,35.23,0,0,1,.56-10.85H283.72a35.65,35.65,0,0,1,.52,10.85m-15.48,19.23a11.58,11.58,0,0,0-2,.86c-2.74,1.48-4,5-5.28,7.27-.05.1,10.67.33,13.69.31s6.61-.23,9.16-1.84c2.93-1.88,4.66-6.35,4.81-8.73A10.37,10.37,0,0,1,284.2,159a35.47,35.47,0,0,1-5.65-.12,26.9,26.9,0,0,0-9.79.76m-178,17.22c-4.31,3.37-16.32,2.43-27,2.39,0-1.88,0-7.29,0-13.23,6.51-.09,16.72.07,20.88,1.48V156.93c-4,1.33-14.33,1.39-20.88,1.26,0-5.46,0-10.21,0-11.82,1.08,0,15.19-.11,21.1.34A8.81,8.81,0,0,1,90.69,149a65,65,0,0,1,.19-10.54s-37-.08-37.65,0c1.26,2.2,1.46,5.44,1.46,8.27q0,12.19,0,24.39c0,5.43.36,9.51-1.15,15.95l.2.13c12.13,0,36.88,0,36.88,0a35.73,35.73,0,0,1,.1-10.35m103,0c-4.31,3.37-16.33,2.43-27,2.39,0-1.88,0-7.29,0-13.23,6.51-.09,16.71.07,20.87,1.48V156.93c-4,1.33-14.33,1.39-20.88,1.26,0-5.46,0-10.21,0-11.82,1.08,0,15.2-.11,21.11.34a8.78,8.78,0,0,1,5.88,2.27,65,65,0,0,1,.19-10.54s-37-.08-37.65,0c1.27,2.2,1.45,5.44,1.46,8.27q0,12.19,0,24.39c0,5.43.36,9.51-1.16,15.95l.21.13c12.12,0,36.88,0,36.88,0a35.05,35.05,0,0,1,.09-10.35m215-30.15c0,8.13,0,16.27,0,24.39,0,5.43.35,9.51-1.15,15.95l.19.13c12.13,0,36.89,0,36.89,0a35.47,35.47,0,0,1,.09-10.35c-4.3,3.37-16.33,2.43-27,2.39,0-1.88,0-7.29,0-13.23,6.5-.09,16.71.07,20.86,1.48V156.93c-4,1.33-14.31,1.39-20.88,1.26,0-5.46,0-10.21,0-11.82,1.09,0,15.21-.11,21.12.34a8.75,8.75,0,0,1,5.87,2.27,67.84,67.84,0,0,1,.19-10.54s-37-.08-37.64,0c1.26,2.2,1.46,5.44,1.46,8.27m49.6,0q0,12.19,0,24.39c0,5.43.35,9.51-1.16,15.95l.21.13c12.1,0,36.87,0,36.87,0a35.3,35.3,0,0,1,.1-10.35c-4.32,3.37-16.33,2.43-27,2.39,0-1.88,0-7.29,0-13.23,6.51-.09,16.72.07,20.87,1.48V156.93c-4,1.33-14.31,1.39-20.87,1.26,0-5.46,0-10.21,0-11.82,1.07,0,15.19-.11,21.11.34A8.8,8.8,0,0,1,494.3,149a65,65,0,0,1,.19-10.54s-37-.08-37.65,0c1.26,2.2,1.45,5.44,1.46,8.27M305.39,32.6a5.36,5.36,0,0,1,2.07-3.47,5.62,5.62,0,0,0-5.54,4.06,28,28,0,0,0,0-2.9,33.82,33.82,0,0,0-1-7,2.16,2.16,0,0,0,2.76-.35c1.8-1.59-.64-4.57-.91-6.15a4,4,0,0,1,1.12-3c-3.1.86-3.89,3.8-4.08,5.59A28.69,28.69,0,0,0,296.4,12c4-.17,2.24-5.46,1.72-7.5A4.81,4.81,0,0,1,298.29,1a10.83,10.83,0,0,0-3.4,4.57,7.74,7.74,0,0,0-.37,3.9c-1.78-2.33-3.22-3.19-3.3-3.06a32.62,32.62,0,0,1,7,12.21,4.71,4.71,0,0,0-3.8-2.55,5.29,5.29,0,0,1-1.89-.19,3.58,3.58,0,0,1-1.43-1.28,4.58,4.58,0,0,0,.27,2.48A7.51,7.51,0,0,0,293.65,20c2,1.39,4,.72,5.18,2.25,0,0,3.28,4.36.26,19.07-.16-2.67-2.29-3.58-3-4.21s-.2-1.88-.2-1.88c-1,1.08-1.61,2.85-1.52,5.44s2,3,2.43,4.6c.21.83-.19,2.92-1.5,5a15.35,15.35,0,0,1-5.56,5.23,32.77,32.77,0,0,0,2.3-6.48,56.41,56.41,0,0,0,1.18-17.16,2.45,2.45,0,0,0,2.57-.79c2.36-2.52,0-5.93,2.29-7.06a5,5,0,0,0-5.25,4.32,47.17,47.17,0,0,0-4.52-14.8c-.21-.43-.44-.82-.66-1.22a2.54,2.54,0,0,0,2.58-2.36c.2-1.31-1.12-3.27-2-4.84a5.3,5.3,0,0,1-.48-2.83,7.8,7.8,0,0,0-1.95,7.1,26.48,26.48,0,0,0-5.91-6,10.12,10.12,0,0,0-2.59-1.54c-.1.09,0,.14.26.4a30.49,30.49,0,0,1,3.13,2.68A3.19,3.19,0,0,0,278,4.5c-2,.43-3.36,1.29-4.3-.35a5.3,5.3,0,0,0,3.41,4.29c3.26,1.36,3.74-1.1,5.15-1,.85.05,2.1,1.48,2.95,2.56a29,29,0,0,1,2.18,4,37.07,37.07,0,0,1,2.27,6.19,6.44,6.44,0,0,0-2-2.41c-1.83-1.09-3.91.09-4.72-2.53,0,0-.66,4.39,2.32,6.86a4.13,4.13,0,0,0,5,.6,57.15,57.15,0,0,1,1,17.7,3.88,3.88,0,0,0-1.49-2.15c-1.89-1.34-2.43-2.52-2.5-3.92a21.37,21.37,0,0,1-.69,2.4c-.33.83-2.19,3.71-.13,6.18a4.42,4.42,0,0,0,3.95,1.83c-.23,1.23-.36,2-.68,3.25a26.9,26.9,0,0,1-1.91,5.5c.15-2.22-2.06-3.8-3-4.52s-.09-2.62-.09-2.62c-1.35,1.1-2.16,2.35-2.44,5.42s1.72,3.64,2.45,4.66c.4.54.05,2.21-.57,3-2.26,3-6.83,7.55-15.41,10.65a5,5,0,0,0,2.67-3.82,6.81,6.81,0,0,0-.21-3.35c-.4,2.32-2.6,2-5.18,2.8a3.85,3.85,0,0,0-2.53,3.63,2.06,2.06,0,0,0,2.12,1.75,22,22,0,0,1-2.34.34s-7.48.92-7.48-.42,1.7-1.15,4.51-2.8a39.87,39.87,0,0,0,8.34-7.55,2.9,2.9,0,0,0,3.59,1.41c2.4-1,4.42-4.73,6.75-4.24a8.33,8.33,0,0,0-7.51-1A28.91,28.91,0,0,0,273,54.26c.11-.22.23-.42.35-.63a4.72,4.72,0,0,0,.24-.56,17,17,0,0,0,5.71-4.19s5-5.89,5.29-15.88a1.33,1.33,0,0,0,1.15.38c3-.13,3.17-3.76,3-4.85a3.4,3.4,0,0,1,1.3-2.83,10.2,10.2,0,0,1-1.81.54,7.08,7.08,0,0,0-2.44.7,5,5,0,0,0-1.59,1.48c-.9-7.92-3.87-12.45-3.83-12.37-.21,0,.87,2.82,1.71,7A2.91,2.91,0,0,0,279.89,22c-1.59,0-1.92,1.15-3.44-.52,0,0-.13,4.38,2.47,5.51a5.25,5.25,0,0,0,3.64.47c.11.19.88,2.83.28,7.9a23.32,23.32,0,0,1-4.42,11,8.7,8.7,0,0,1-3.5,2.91,47,47,0,0,0,1.82-8.93c.07-.52.1-1,.12-1.55a4.89,4.89,0,0,0,3.44-4.06c.35-3.24.56-3.93,2-4.75,0,0-4-.7-5.6,2.47a72.66,72.66,0,0,0-3.25-14,2.09,2.09,0,0,0,3.08-.9c.81-1.38,0-3.8-.36-5.32a3.73,3.73,0,0,1,.73-2.86c-3.37.44-4.25,3.27-4.53,4.89a19.76,19.76,0,0,1-1.07-8.95c0-.31.17-.62.06-.64s-.17.08-.25.29c-.45,1.13-1.07,5.43.57,11,.55,2.17,1.13,4.61,1.71,7.19a2.19,2.19,0,0,0-1.82-1.33c-2.1,0-2.52-.91-2.81-2.19,0,0-1.13,4.92,1.5,7.12,1.92,1.62,3.26.44,3.81-.3a41.87,41.87,0,0,1,.52,13.64,43.94,43.94,0,0,1-.8,4.39c-.06-2.25-1.86-3.38-2.26-3.84a3.42,3.42,0,0,1-.36-1.79c-1,1-2.65,3.35-2.24,6a4.12,4.12,0,0,0,3.29,3.27.39.39,0,0,1,.22.54,22.49,22.49,0,0,1-1.67,3.61,27.83,27.83,0,0,1-3.05,4.39c-3.29,3.4-6.94,6-9.57,6.94s-2-2.31-1.47-4,1-3.22,2.61-4a6.81,6.81,0,0,1,1.08-.37,1.16,1.16,0,0,1,.73,0,3.85,3.85,0,0,0,3.76.52c2-.75,3.72-3.49,4.19-4.69a6,6,0,0,1-2.31.73c-.89-.08-1.71-1.13-3.37-.8a27.5,27.5,0,0,0,2.37-2.83c2.61-4,3-9.94,3-10.83a2.15,2.15,0,0,1,.46-1.56c.68-.65,2.23-1.47,2.1-3.72a6.46,6.46,0,0,0-2.1-3.57c-1.4-1.25-2.25-2.27-1.94-4.19,0-.1-2.8,2.8-1.74,6.14.85,2.68,2.54,4.35,2.26,7.29s-.9,6.56-3.23,9.58a35.92,35.92,0,0,1-6.39,5.74,2,2,0,0,1-2.23-1.39,7.5,7.5,0,0,1-.41-2.92,5.06,5.06,0,0,1,.62-2.92,44.57,44.57,0,0,0,3.35-3.51l.07-.08a3.36,3.36,0,0,0,4.32-.63c2.18-2.42.88-3.44,3-4,0,0-2.11-1.06-5,.87a23.48,23.48,0,0,0,2.26-11.44,28.6,28.6,0,0,0-1-6.71A3.73,3.73,0,0,0,266,18.63c1.17-1.73.25-4.07.11-6.08a3,3,0,0,1,1.48-2.86,7.62,7.62,0,0,0-4.07,1.82c-1.25,1.19-1.56,3.53-1.6,4.66a25.75,25.75,0,0,1-1-4.29c-.53-4.13.37-6.87.08-6.94,0,0-.09,0-.18.25a20.47,20.47,0,0,0-.58,6.77c.33,4.33,2.65,9.58,2.49,15.18,0,.51,0,1,0,1.5a5.63,5.63,0,0,0-1.53-3.22c-1.92-1.65-3.37-2.77-2.92-4.44,0-.1-2.39,3.76-.45,7.48,1.22,2.35,4,2.05,4,4.14a13.05,13.05,0,0,1-.59,3c-1.49,3.47-5,7.52-5.67,7.73s-1,0-1.42-.91c-.79-1.83-2.85-6.82-3.9-8.77-.62-1.19-1.26-2.63-.87-3.17.2-.27,1.53-.46,2.55-1a7.74,7.74,0,0,0,2.52-2.51,13.22,13.22,0,0,0,2-7.46c0-2.27-.35-2.74-1.41-5.73s1.88-3.31,2-5.39c.12-2.26-1.14-2.65-2.08-4s.65-3,.65-3c-5,2.23-3.62,8.4-2.12,11.21A15.53,15.53,0,0,1,255,18a17.92,17.92,0,0,1,0,1.94,7,7,0,0,1-.29,2c-.17-2.21-1.24-6.49-7-6.31a3.77,3.77,0,0,1,1.51,2.65c.14,1.76.17,2.56,1,3.35a3.49,3.49,0,0,0,3.6.91c.33.73-.34,2.19-.82,3l-.17.21a6.85,6.85,0,0,1-11.28-1,6.33,6.33,0,0,0,3.83-.71c1.15-.76,1.4-2.31,1.42-3.47a7.36,7.36,0,0,1,.52-2.28,10.26,10.26,0,0,0-4.2,2.14,7.78,7.78,0,0,0-2.07,3.34,13.26,13.26,0,0,1-.59-1.26,13.72,13.72,0,0,1-.73-5.24c3.32,1,4.21-2.16,4.18-3.15,0-1.61.46-1.85.46-1.92a6.17,6.17,0,0,0-4.24,2.45,24.31,24.31,0,0,1,1.5-4.52,6.88,6.88,0,0,0-.29-5.11c-1-1.82-.65-3.16-.25-3.6,0,0-3.57,2.56-3.15,6.4.22,1.94,2.78,2.68,1.93,4.62l-.2.48a12.85,12.85,0,0,0-1.06,2.75,4.43,4.43,0,0,0-3.52-2.52c.89,1.18.06,3.56.78,5.2a2.35,2.35,0,0,0,2.37,1.29,15.65,15.65,0,0,0,1.4,5.57,12.42,12.42,0,0,0,5,4.95c.45.23.9.78,1.49,2.65s1.34,3,2.62,6.36,2.28,6.82,1.19,7.82c-.81.74-3.36.27-6.82-1.4A18.29,18.29,0,0,1,241,44.31c.86,0,2.33-.46,2.79-3.3a6.14,6.14,0,0,0-2-5.46,4.71,4.71,0,0,0-2.21-1.18c1.32,2-.34,2.46-1.4,4.26a3.26,3.26,0,0,0-.33,2.92l-.55-.6a21.32,21.32,0,0,1-4-8.15c-.06-.19-.12-.46-.17-.65,2,0,3.63-1.2,4.46-3.44,1.18-3.15-1-7.68-1-7.68a4.41,4.41,0,0,1-2.43,3.42,5.08,5.08,0,0,0-1.72,1.34c.19-4.5,1.45-8.76,2.13-12.3a20.21,20.21,0,0,0-.14-9l-.15,0c-.27,0,.77,3.64-.58,8.84-.08.34-.18.71-.28,1.06-.67-3.48-4.53-5.25-4.53-5.25,2.56,2.51-.61,6.15.48,8.44A2.32,2.32,0,0,0,232.05,19c-1.1,4.2-2,9.1-.79,14.13a24.52,24.52,0,0,0,1.46,4.74,4.51,4.51,0,0,0-5.12.55c2.45.18,1.27,2.07,3.71,4.29a2.88,2.88,0,0,0,4.17.13l.31.42A25.69,25.69,0,0,0,243,49.68c1.63.86,3.6,1.9,4.61,2.32,1.84.76,2.5,3.15,2,5.72-.82,4.29-1.71,8.74-3.8,8.64a17.58,17.58,0,0,1-4.11-.69l-.6-.14,0-.37a13.38,13.38,0,0,0-.58-6.06,8,8,0,0,0-.47-1.19c2.15.11,3.13-1.65,2.91-3.63-.28-2.52-4.62-6.15-4.62-6.15a7.34,7.34,0,0,1,.25,2.9c-.15.9-1,1.51-.74,3.17A23.3,23.3,0,0,0,236,52.62a21,21,0,0,1-3.9-3.72,19,19,0,0,1-4.95-10.34c-.4-3.62.95-4.28,1.84-6.63a7.84,7.84,0,0,0-.82-6.54,2.89,2.89,0,0,1-2,2.71,4.49,4.49,0,0,0-2.77,4.57A4,4,0,0,0,226,35.91,14.74,14.74,0,0,0,226,39a25.47,25.47,0,0,0,3.93,10.57c.33.48,1.33,1.58,1.68,2a4.47,4.47,0,0,0-2.32-.54c-1.55.18-2.77,1-4.32-.77,0,0,.49,4.27,3.42,5.67,2.68,1.28,5.38.34,5.31-2,2.06,2.15,4,3.93,4.21,6a10.43,10.43,0,0,1,.27,4.05c0,.23,0,.6-.26.5a3.05,3.05,0,0,1-.53-.2,27.12,27.12,0,0,1-14.24-13.43,32.84,32.84,0,0,1-1.51-4.17c.69.21,2.78.66,3.75-1.23,1.2-2.33.35-6-1.54-8.23,0,0,.4,1.92-.55,2.69-.77.61-2.27,1.28-2.56,3a37.6,37.6,0,0,1-.34-15.49c.24-.67.67-1.47,1.34-1.37,1.14.19,2.93.59,4.26-1.24a8.65,8.65,0,0,0,1.65-6.6,2.77,2.77,0,0,1-1.91,2c-1.1.23-2.92,0-4.06,1.53.45-1.61.94-3.15,1.43-4.54,2.51-7,1.67-12.15,1.53-12l-.16.11a17.05,17.05,0,0,1-.09,2.45A32.55,32.55,0,0,1,223,13.94c0-2.68-1.77-5.26-5.57-5.23A3.53,3.53,0,0,1,219.08,12c-.32,2.16-1.13,5.45,2.25,5.24a1.49,1.49,0,0,0,.78-.28,56.52,56.52,0,0,0-3.85,14c-.47-.57-1.65-1.86-2.84-1.95a3.67,3.67,0,0,0-2.49.4s2.47.63,1.67,4c-.4,1.73,1.16,4,3.3,3.46a33.35,33.35,0,0,0,.76,6.76,31.75,31.75,0,0,0,1,4.51,3.93,3.93,0,0,1-2.78-1.55c-2.28-2.66-3.79-6.3-4.49-11.15a43,43,0,0,1-.3-10.5,3.11,3.11,0,0,0,3.7.49,6.68,6.68,0,0,0,3.57-5.93s-1.13.91-2,.64-3-1.26-5,2.08c.09-.46.18-.92.28-1.34.89-3.61,2.45-5.63,2.22-5.75,0,0-.13-.06-.29.13a18,18,0,0,0-3,5.58,28.21,28.21,0,0,0-1.33,6.27c-2.93-3.65-5.78-1.65-5.78-1.65,2,.09,1.06,3,1.54,4.66A2.63,2.63,0,0,0,209,32a2.11,2.11,0,0,0,1.17-.69c0,1,.05,2.11.15,3.17.47,5.12,1.92,10.26,4.52,13.69a9.25,9.25,0,0,0,5.81,3.55,20.2,20.2,0,0,0,2.92,5.57,6.08,6.08,0,0,0-7.85.68c3.41-.19,3.2,2.78,5.48,3.82a3,3,0,0,0,4.27-1.64c3,4,6.24,7.73,13,10.53,1.26.42,1.51.52,1.56.73s-.13.14-.46.14a39.23,39.23,0,0,1-9.71-1.25,2.44,2.44,0,0,0,.55-3.43c-2-3.49-6.27-.93-7-3.65,0,0-1.2,3.19.86,5.48a36.38,36.38,0,0,1-8.31-4.26A28.29,28.29,0,0,1,208.11,56c7.7-2,1.25-11,1.25-11,.12,1.52-.69,2.56-2.1,4.12a4.85,4.85,0,0,0-1,3.29A39.38,39.38,0,0,1,203.39,43c.9.44,2.52.72,4.33-1.3,2.76-3.07-.46-7.42-.46-7.42a2.34,2.34,0,0,1-1.93,2.56A3.63,3.63,0,0,0,203,39.16a53.87,53.87,0,0,1,1.82-17.45,4.24,4.24,0,0,0,4.17-.65,8.52,8.52,0,0,0,2.77-7,2.54,2.54,0,0,1-1.8,1.64c-1.12.22-2.45-.2-3.59,1A51.06,51.06,0,0,1,211,7.91c.75-1,1.6-1.39,2-1a3.15,3.15,0,0,0,3.63,1.15c1.86-.66,4.35-2.31,4.93-4.17a3.26,3.26,0,0,1-2.22.68c-.93-.27-2.35-1.62-6,.36l.15-.18A35.17,35.17,0,0,1,218.86.37a3.07,3.07,0,0,0-1.28.33A17.69,17.69,0,0,0,212.93,4a24.87,24.87,0,0,0-3.48,4c1.22-3.72-2-6.49-2-6.52.64,2.19-.88,4-1.95,5.67s-.45,3.5.8,3.83a1.82,1.82,0,0,0,1.37,0,27.72,27.72,0,0,0-3.4,6.51A42.67,42.67,0,0,0,201.66,27a6.13,6.13,0,0,0-1.94-3.41,4.67,4.67,0,0,0-3.91-.91s1.19.8.85,3,.45,5.74,4.46,4.88a61.11,61.11,0,0,0-.21,11.67,29.69,29.69,0,0,0,3.27,12.7,26.23,26.23,0,0,1-5.77-6,14.12,14.12,0,0,1-2-4.77,1.65,1.65,0,0,0,.66.13c1.43,0,3-1.86,2.31-4.53s-1-5.09.58-6.18c0,0-5.6,1.75-4.73,8.4-1.48-5.37-1.32-11.46-.53-16.84q.24-1.42.54-2.79c.48-1.52,1.11-2.7,1.89-2.39a4.53,4.53,0,0,0,5.4-2.09,8.86,8.86,0,0,0,1-5.39,3.33,3.33,0,0,1-2.28,1.68,5.21,5.21,0,0,0-4,1.65,23,23,0,0,1,2.76-5.89c2.39-3.56,4.62-5.76,4.51-5.88s0-.14-.21,0-.81.72-1.39,1.23a23.51,23.51,0,0,0-3.23,3.45C201.15,4.2,197.27,0,197.27,0c1.32,3.68-2.18,5.2-1.77,8s2.24,2.64,3.11,2.42a40.54,40.54,0,0,0-3.94,9.1c-.2-4.3-3.75-7.56-3.75-7.56,1.61,3.71-1.29,4.95-.73,8.28a2.73,2.73,0,0,0,3.63,2.36c-.19.76-.38,1.55-.54,2.33a54.24,54.24,0,0,0-.86,7.37c-1.16-4-5.4-4.61-5.4-4.61,3.22,3,.64,4.51,1.7,7.31a2.55,2.55,0,0,0,3.7,1.46,29.76,29.76,0,0,0,1.9,9.32c.23.6.49,1.19.77,1.76-4.57-3.22-7.65-.8-7.65-.8,3.18-.48,3.15,3.71,5.51,5.27a2.85,2.85,0,0,0,3.87-.26,2.07,2.07,0,0,0,.36-.64,24.6,24.6,0,0,0,9.35,8,43,43,0,0,0,26.39,18.41,44,44,0,0,1,5.42,1.76c1.52.73.85,3.23.24,5.78a21,21,0,0,0,.36,10.72c1.28,4,4.7,10-1.69,14-4.52,2.79-11.82,5.17-25.15,5.84,0,0-9.25.37-11.33.42s-3.77.11-4.08,1c-.36,1.09,1.12,1.31,12.67,1.31h74.75c11.54,0,13-.22,12.67-1.31-.31-.94-2-1-4.08-1s-11.32-.42-11.32-.42c-10.83,0-17.55-4.55-22.05-7.34-5.83-3.62-16.9-18.82-3.35-28.65a12.86,12.86,0,0,1,1.84-.77c8.08-2.76,21.66-5.71,28.57-17.19.1-.15.07-.13.22-.34s.23-.18.51-.32A23,23,0,0,0,297,52c2.78,1.26,5.14-1.56,6-3a3.8,3.8,0,0,1,2.93-1.55s-.33-.34-2.53-.65A6.55,6.55,0,0,0,298.88,48a33.13,33.13,0,0,0,2.67-9.66c3.8.1,3.64-3.66,3.84-5.77m-49.87,75.84v0l0,0h0a15.23,15.23,0,0,1-5.95-4,18,18,0,0,1-4.19-8.91,21.42,21.42,0,0,1-.4-3.74,9.46,9.46,0,0,1,.11-1.52A14.54,14.54,0,0,1,249,82.21l0,0v.06a23.48,23.48,0,0,0-2.15,8.46c-.16,3,1.09,5.48,1.61,7.81a16.91,16.91,0,0,0,7,9.92"/></g></g></svg>