<?xml version="1.0" encoding="UTF-8"?>
<svg width="1004px" height="1004px" viewBox="0 0 1004 1004" version="1.1" xmlns="http://www.w3.org/2000/svg" xmlns:xlink="http://www.w3.org/1999/xlink">
    <title>Combined Shape</title>
    <g id="Page-1" stroke="none" stroke-width="1" fill="none" fill-rule="evenodd">
        <path d="M502,0.6 C569.6,0.6 635.2,13.9 697,40.1 C756.7,65.4 810.3,101.6 856.4,147.6 C902.4,193.7 938.6,247.3 963.9,307 C990.1,368.8 1003.3,434.4 1003.3,502 C1003.3,778.4 778.4,1003.3 502,1003.3 C225.6,1003.3 0.7,778.4 0.7,502 C0.7,225.6 225.6,0.7 502,0.6 Z M502,83.6 C271.3,83.6 83.6,271.3 83.6,502 C83.6,732.7 271.3,920.4 502,920.4 C732.7,920.4 920.4,732.7 920.4,502 C920.4,271.3 732.7,83.6 502,83.6 Z M645.8,359.7 C656.8,359.7 667.3,364.1 675.1,371.9 L675.1,371.9 L675.2,372.1 C691.1,388.3 690.9,414.6 674.9,430.6 L674.9,430.6 L472.1,632.2 C464.3,640 453.9,644.3 442.9,644.3 C431.8,644.3 421.3,639.9 413.5,632.1 L413.5,632.1 L328.7,546.7 C312.7,530.3 312.9,504 329.2,488.1 C345.4,472.2 371.7,472.4 387.7,488.4 L387.7,488.4 L443.2,544.3 L616.5,371.9 C624.3,364 634.8,359.7 645.8,359.7 Z" id="Combined-Shape" fill="#6DD400" fill-rule="nonzero"></path>
    </g>
</svg>