<?xml version="1.0" encoding="UTF-8"?>
<svg width="1003px" height="1003px" viewBox="0 0 1003 1003" version="1.1" xmlns="http://www.w3.org/2000/svg" xmlns:xlink="http://www.w3.org/1999/xlink">
    <title>Shape</title>
    <g id="Page-1" stroke="none" stroke-width="1" fill="none" fill-rule="evenodd">
        <path d="M501.3,0 C568.9,0 634.5,13.3 696.3,39.5 C756,64.8 809.6,101 855.7,147 C901.7,193.1 937.9,246.7 963.2,306.4 C989.4,368.2 1002.6,433.8 1002.6,501.4 C1002.6,777.8 777.7,1002.7 501.3,1002.7 C224.9,1002.7 0,777.8 0,501.4 C0,225 224.9,0.1 501.3,0 Z M501.3,83 C270.6,83 82.9,270.7 82.9,501.4 C82.9,732.1 270.6,919.8 501.3,919.8 C732,919.8 919.7,732.1 919.7,501.4 C919.7,270.7 732,83 501.3,83 Z M672.662518,330.008622 C688.674014,346.020118 688.674014,371.979882 672.662518,387.991378 L558.818,501.835 L672.662518,615.679762 C688.513899,631.531143 688.672412,657.132821 673.138059,673.179208 L672.662518,673.662518 C656.811137,689.513899 631.209458,689.672412 615.163071,674.138059 L614.679762,673.662518 L500.835,559.818 L386.991378,673.662518 C370.979882,689.674014 345.020118,689.674014 329.008622,673.662518 C312.997126,657.651022 312.997126,631.691258 329.008622,615.679762 L442.852,501.835 L329.008622,387.991378 C313.157241,372.139997 312.998727,346.538318 328.533081,330.491931 L329.008622,330.008622 C344.860003,314.157241 370.461682,313.998727 386.508069,329.533081 L386.991378,330.008622 L500.835,443.852 L614.679762,330.008622 C630.691258,313.997126 656.651022,313.997126 672.662518,330.008622 Z" id="Shape" fill="#A60808" fill-rule="nonzero"></path>
    </g>
</svg>