<svg xmlns="http://www.w3.org/2000/svg" xmlns:xlink="http://www.w3.org/1999/xlink" viewBox="0 0 41.5 40.15"><defs><style>.cls-1{fill:none;}.cls-2{clip-path:url(#clip-path);}.cls-3{clip-path:url(#clip-path-2);}.cls-4{fill:#fff;}</style><clipPath id="clip-path" transform="translate(0.68)"><path class="cls-1" d="M33.91,11.06a11,11,0,0,1-3.26.93,5.9,5.9,0,0,0,2.49-3.3,11,11,0,0,1-3.6,1.45,5.55,5.55,0,0,0-4.15-1.88,5.82,5.82,0,0,0-5.67,6,6.67,6.67,0,0,0,.14,1.36A15.83,15.83,0,0,1,8.17,9.35a6.14,6.14,0,0,0-.77,3,6,6,0,0,0,2.53,5,5.46,5.46,0,0,1-2.58-.75v.08a5.91,5.91,0,0,0,4.56,5.85,5.72,5.72,0,0,1-1.5.21,5.47,5.47,0,0,1-1.07-.11,5.72,5.72,0,0,0,5.3,4.14,11,11,0,0,1-7,2.56,12.22,12.22,0,0,1-1.35-.08,15.51,15.51,0,0,0,8.7,2.68c10.44,0,16.15-9.09,16.15-17,0-.26,0-.52,0-.77a11.77,11.77,0,0,0,2.83-3.09Z"/></clipPath><clipPath id="clip-path-2" transform="translate(0.68)"><rect class="cls-1" x="3.47" y="2.47" width="33.2" height="34.75"/></clipPath></defs><g id="Layer_2" data-name="Layer 2"><g id="Capa_1" data-name="Capa 1"><g class="cls-2"><g class="cls-3"><rect class="cls-4" y="1.02" width="41.5" height="38.11"/></g></g><rect class="cls-1" x="0.68" width="40.15" height="40.15"/></g></g></svg>