<svg xmlns="http://www.w3.org/2000/svg" xmlns:xlink="http://www.w3.org/1999/xlink" viewBox="0 0 40.15 40.15"><defs><style>.cls-1{fill:#fff;}.cls-2{clip-path:url(#clip-path);}.cls-3{fill:none;}</style><clipPath id="clip-path"><path class="cls-1" d="M22.32,34.6V21.35h4.45l.67-5.17H22.32V12.89c0-1.5.42-2.52,2.56-2.52h2.74V5.75a38,38,0,0,0-4-.2C19.69,5.55,17,8,17,12.37v3.81H12.53v5.17H17V34.6Z"/></clipPath></defs><g id="Layer_2" data-name="Layer 2"><g id="Capa_1" data-name="Capa 1"><path class="cls-1" d="M22.32,34.6V21.35h4.45l.67-5.17H22.32V12.89c0-1.5.42-2.52,2.56-2.52h2.74V5.75a38,38,0,0,0-4-.2C19.69,5.55,17,8,17,12.37v3.81H12.53v5.17H17V34.6Z"/><rect class="cls-3" width="40.15" height="40.15"/></g></g></svg>