<svg xmlns="http://www.w3.org/2000/svg" viewBox="0 0 49.41 35.53"><defs><style>.cls-1{fill:#afafaf;}</style></defs><g id="Layer_2" data-name="Layer 2"><g id="Capa_1" data-name="Capa 1"><path class="cls-1" d="M24.71,9.22a9.87,9.87,0,0,0-9.15,6.06A9.78,9.78,0,0,0,17.71,26,9.94,9.94,0,0,0,32.94,24.5,9.74,9.74,0,0,0,31.7,12.1a9.93,9.93,0,0,0-7-2.88Zm0,17.83a8.07,8.07,0,0,1-7.46-4.94A8,8,0,0,1,19,13.38a8.1,8.1,0,0,1,8.79-1.73A8,8,0,0,1,30.41,24.7a8.13,8.13,0,0,1-5.7,2.35Z"/><path class="cls-1" d="M38.56,9.18a2,2,0,0,0-1.89,1.25,2,2,0,0,0-.11,1.17,2,2,0,0,0,.55,1,2,2,0,0,0,1,.56,2,2,0,0,0,2.44-2,2,2,0,0,0-2-2Z"/><path class="cls-1" d="M47.74,4.52H45.45l-.37,0H36.36L34.17.88A2,2,0,0,0,33.5.27,2,2,0,0,0,32.63,0H16.78a2.09,2.09,0,0,0-.87.26,2,2,0,0,0-.67.62L13.05,4.49H4.33L4,4.52H1.67A1.66,1.66,0,0,0,0,6.17V33.88a1.55,1.55,0,0,0,.13.63,1.6,1.6,0,0,0,.36.54A1.62,1.62,0,0,0,1,35.4a1.56,1.56,0,0,0,.64.13H47.74a1.56,1.56,0,0,0,.64-.13,1.62,1.62,0,0,0,.54-.35,1.6,1.6,0,0,0,.36-.54,1.55,1.55,0,0,0,.13-.63V6.17a1.51,1.51,0,0,0-.13-.63A1.6,1.6,0,0,0,48.92,5a1.82,1.82,0,0,0-.54-.36A1.73,1.73,0,0,0,47.74,4.52ZM47.55,31.2c0,.05,0,.08,0,.13v1.34a1,1,0,0,1-1,1H45.3l-.25,0H4.36l-.25,0H2.9a1,1,0,0,1-.39-.07,1.06,1.06,0,0,1-.33-.22A1.19,1.19,0,0,1,2,33.05a1,1,0,0,1-.08-.38v-1.3c0-.06,0-.11,0-.17V8.82c0-.06,0-.1,0-.16V7.34a1,1,0,0,1,.3-.71,1,1,0,0,1,.72-.3H14.34l1-1.8,1.51-2.69H32.32L34,4.52l1.15,1.8H46.52a1,1,0,0,1,.72.3,1,1,0,0,1,.29.71V8.7s0,.07,0,.12Z"/><path class="cls-1" d="M9.05,1.08H5.26V2.9H9.37V1.08Z"/></g></g></svg>