<?xml version="1.0" encoding="UTF-8"?>
<svg width="101px" height="101px" viewBox="0 0 101 101" version="1.1" xmlns="http://www.w3.org/2000/svg" xmlns:xlink="http://www.w3.org/1999/xlink">
    <title>Combined Shape</title>
    <g id="Page-1" stroke="none" stroke-width="1" fill="none" fill-rule="evenodd">
        <path d="M100.5,75.5133333 L100.5,100.5 L75.5133333,100.5 L75.5133333,93.5 L93.5,93.5 L93.5,75.5133333 L100.5,75.5133333 Z M7.5,75.5133333 L7.5,93.5 L25.5133333,93.5 L25.5133333,100.5 L0.5,100.5 L0.5,75.5133333 L7.5,75.5133333 Z M80.5,20.5 L80.5,80.5 L20.5,80.5 L20.5,20.5 L80.5,20.5 Z M60.4733333,35.4866667 L50.4733333,60.5 L40.4733333,45.4866667 L30.4733333,60.5 L30.4733333,70.5 L70.5266667,70.5 L70.5266667,55.38 L60.4733333,35.4866667 Z M45.4866667,30.4733333 C42.7133333,30.4733333 40.4733333,32.7133333 40.4733333,35.4866667 C40.4733333,38.26 42.7133333,40.5 45.4866667,40.5 C48.26,40.5 50.5,38.26 50.5,35.4866667 C50.5,32.7133333 48.26,30.4733333 45.4866667,30.4733333 Z M100.5,0.5 L100.5,25.5133333 L93.5,25.5133333 L93.5,7.5 L75.5133333,7.5 L75.5133333,0.5 L100.5,0.5 Z M25.5133333,0.5 L25.5133333,7.5 L7.5,7.5 L7.5,25.5133333 L0.5,25.5133333 L0.5,0.5 L25.5133333,0.5 Z" id="Combined-Shape" fill="#FFFFFF" fill-rule="nonzero"></path>
    </g>
</svg>