<?xml version="1.0" encoding="UTF-8"?>
<svg width="87px" height="42px" viewBox="0 0 87 42" version="1.1" xmlns="http://www.w3.org/2000/svg" xmlns:xlink="http://www.w3.org/1999/xlink">
    <title>Group</title>
    <g id="Page-1" stroke="none" stroke-width="1" fill="none" fill-rule="evenodd">
        <g id="Group" transform="translate(0.100000, 0.900000)" fill-rule="nonzero">
            <path d="M20.1,40.2 L65.7,40.2 C76.8,40.2 85.8,31.2 85.8,20.1 L85.8,20.1 C85.8,9 76.8,0 65.7,0 L20.1,0 C9,0 0,9 0,20.1 L0,20.1 C0,31.2 9.1,40.2 20.1,40.2 Z" id="Path" fill="#6DD400"></path>
            <path d="M65.1,5.4 C73.2,5.4 79.8,12 79.8,20.1 C79.8,28.2 73.2,34.8 65.1,34.8 C57,34.8 50.4,28.2 50.4,20.1 C50.4,12 57,5.4 65.1,5.4 Z" id="Path" fill="#FFFFFF"></path>
        </g>
    </g>
</svg>